<?xml version="1.0" encoding="utf-8"?>
<!-- Generator: $$$/GeneralStr/196=Adobe Illustrator 27.6.0, SVG Export Plug-In . SVG Version: 6.00 Build 0)  -->
<svg version="1.1" id="Layer_1" xmlns="http://www.w3.org/2000/svg" xmlns:xlink="http://www.w3.org/1999/xlink" x="0px" y="0px"
	 viewBox="0 0 1196 500.3" style="enable-background:new 0 0 1196 500.3;" xml:space="preserve">
<g id="layer101">
	<path d="M565,481.3c-45.6-26.5-61.3-35.5-103.7-60l-37.2-21.4l-0.3-52.3l-0.3-52.4l-16-5.8c-8.8-3.2-28.1-10.2-43-15.5
		s-33.3-11.9-41-14.7s-16.2-5.9-19-6.8s-19.6-7.1-37.5-13.5s-37.9-13.7-44.5-16s-21-7.5-32-11.5c-26.6-9.6-42.2-15.2-52.5-18.8
		c-5.9-2.2-9-3.9-10.5-5.8c-1.1-1.6-5.6-8-9.9-14.4c-9.6-13.9-80.8-117.5-88.1-128C5.3,9.3,0,1.4,0,0.4c0-0.6,1.9,0,4.3,1.4
		s15.5,8.9,29.2,16.9s30.9,17.8,38,21.9s18.9,10.9,26,15s49.5,28.6,94,54.3s85.1,49.1,90,52s35.8,20.6,68.5,39.5s71.7,41.4,86.5,50
		l27,15.6l0.3,55.2l0.2,55.1l7.8,4.4c4.2,2.4,31.3,18,60.2,34.7s55.5,32.1,59.3,34.2l6.8,3.9l10.7-6.2c15.5-9,24.2-14,68.2-39.4
		c21.7-12.6,43-24.8,47.2-27.2l7.8-4.4l0.2-55.2l0.3-55.1l18-10.4c9.9-5.7,27-15.6,38-22s25.6-14.7,32.5-18.7
		c31.7-18.3,78.7-45.4,90-52c6.9-4,49-28.3,93.5-54s86.6-50,93.5-54s18.6-10.7,26-15s24.8-14.3,38.5-22.2s26.9-15.6,29.3-16.9
		s4.2-2.1,4.2-1.6c0,0.8-6,9.7-17,25.5c-3,4.2-5.9,8.5-6.5,9.5c-1.4,2.3-2.9,4.5-4.6,6.7c-2,2.8-6.5,9.3-10,14.5
		c-9.1,13.4-33.6,49-40.2,58.5c-3.1,4.4-10.4,15-16.2,23.5c-21.1,30.8-32,46.6-33.6,48.8c-1,1.3-5.1,3.4-10.5,5.4
		c-4.9,1.7-13.2,4.6-18.4,6.5s-10.2,3.5-11,3.7s-3.1,1.1-5,1.9s-7.3,2.9-12,4.6c-17.9,6.2-43.8,15.5-51.1,18.3c-4.2,1.6-8.2,3-9,3.2
		c-1.8,0.5-3.6,1.1-5.3,1.9c-1.4,0.6-2.8,1.2-4.3,1.7c-0.3,0-9.8,3.3-21.2,7.4s-23.7,8.5-27.6,9.9s-14.6,5.3-24,8.7
		c-16.9,6.1-42.7,15.4-47.5,17c-1.4,0.5-7,2.5-12.5,4.5s-10.7,3.7-11.5,3.9s-3.1,1.1-5,1.9s-7.1,2.9-11.5,4.4l-8,2.9l-0.3,52.7
		c-0.1,30.7-0.6,52.7-1.1,52.7c-0.8,0-11.2,5.8-18.1,10c-4.6,2.8-56.1,32.4-58,33.3c-1.6,0.8-1.7,0.9-12.5,7.3
		c-14.5,8.6-34.1,20-37,21.4c-1.6,0.7-3.1,1.6-4.5,2.6c-2.1,1.4-4.3,2.7-6.5,3.8c-2.7,1.5-5.7,3.1-6.5,3.6
		c-3.5,2.2-30.4,18-30.4,17.9S582.9,491.7,565,481.3z"/>
	<path d="M295.2,430.7c-23.6-34.3-25.6-37.3-24.6-38.2c0.5-0.5,4.3-1.4,8.4-2l37-5.5c71.4-10.9,82.4-12.6,83.2-12.6
		c0.4,0,0.8,7.7,0.8,17c0,11.3-0.4,17-1.1,17c-2,0.5-3.9,1.2-5.7,2.1c-2.6,1.2-10.3,4.6-17.2,7.6c-12.6,5.5-20.1,8.9-23.1,10.3
		c-0.9,0.5-6.1,2.7-11.5,5s-12.6,5.5-15.9,7c-10.4,4.8-17.7,8-18.6,8C306.5,446.4,301.2,439.3,295.2,430.7z"/>
	<path d="M841.8,426.1L796,405.9v-16.7c0-9.3,0.4-16.8,0.8-16.8c0.8,0,11.8,1.7,83.2,12.6l37,5.5c4.1,0.6,7.9,1.4,8.4,1.9
		s-1.2,3.6-3.5,7s-5.2,7.6-6.1,9.1s-4.6,6.8-8,11.7s-9,12.7-12.2,17.5s-6.4,8.7-7,8.7S866.9,437.2,841.8,426.1z"/>
	<path d="M581.5,418.1c-8.8-5.1-33.4-19.3-54.8-31.6L488,364.1l0.2-119l0.3-119l26.5-15.4c14.6-8.4,26.9-15.3,27.4-15.3
		s9.1,4.8,19.2,10.7l18.4,10.6l-8.1,4.9c-4.4,2.7-10.2,6-12.7,7.4c-2.5,1.4-10.9,6.2-18.4,10.6l-13.8,8v195.3l5.3,2.9
		c2.8,1.5,18.8,10.7,35.4,20.3s30.6,17.3,31,17s16.7-9.5,36-20.7l35.3-20.2l0.2-24l0.3-24l18-10.4c9.9-5.7,18.3-10.4,18.8-10.4
		s0.7,20.2,0.7,44.8c0,41.5-0.1,45-1.7,46.4c-1,0.8-11.5,7-23.3,13.8s-26.7,15.3-33,19c-47.5,27.5-51.9,30-52.3,30
		C597.6,427.4,590.3,423.2,581.5,418.1z"/>
	<path d="M207.7,303.4c-18.6-27-33.6-49.4-33.4-49.7c0.5-0.4,28.8,7.7,98.2,28.2c9.9,3,29,8.6,42.5,12.5
		c48.3,14.2,68.6,20.2,76.8,22.6l8.2,2.5v28.7l-15.7,0.1c-8.7,0.1-18.5,0.3-21.8,0.6c-6,0.4-33.7,1.3-62,2c-8.2,0.2-24.9,0.7-37,1
		l-22,0.7L207.7,303.4z"/>
	<path d="M928.7,351.8c-0.1-0.1-11.2-0.5-24.7-0.7c-31.2-0.7-63.8-1.6-71.5-2.2c-3.3-0.3-12.9-0.5-21.2-0.6l-15.3-0.1v-28.7l8.3-2.5
		c8.1-2.4,28.4-8.4,76.7-22.6c13.5-3.9,32.6-9.5,42.5-12.5c66.6-19.6,97.7-28.6,98.1-28.3c0.2,0.3-2.2,4.2-5.4,8.7
		s-6.4,9.3-7.2,10.6s-9.4,13.7-19,27.5s-17.9,25.9-18.5,26.8c-2.6,4.2-12.2,18.1-14.8,21.5l-2.9,3.8l-12.4-0.2
		C934.5,352.1,928.9,351.9,928.7,351.8z"/>
	<path d="M570.5,300l-26-15.2l-0.3-21.7c-0.1-11.9,0.1-21.7,0.4-21.7c0.8,0,4.7,2.2,32.3,18.2c11.3,6.5,20.8,11.8,21.2,11.8
		c0.7,0,49.6-28,74.9-43c10.3-6,46.9-27.2,56-32.3c1.9-1,11-6.2,20.3-11.5l16.7-9.5l-0.2-41.6l-0.3-41.6l-14-8.1
		c-7.7-4.4-23.1-13.3-34.3-19.8s-20.9-11.9-21.7-12.2s-10.4,4.7-21.5,11.1s-20.4,11.5-20.8,11.3s-9-5-19-10.8
		c-13.8-8-17.9-10.7-16.9-11.6c0.6-0.6,17.6-10.5,37.7-21.9s37.2-21.3,38.1-21.8c1.3-0.8,6.7,1.9,25,12.5
		C731,28,755.5,42.1,772.7,52l31.2,17.9l0.1,63.6v63.6l-2.2,1.1c-2.8,1.4-5.5,2.9-37.3,21.4c-13.7,7.9-27.2,15.7-30,17.2
		s-7.9,4.5-11.5,6.6s-8.3,4.8-10.5,6s-11.2,6.4-20,11.5c-65.2,37.9-78.6,45.6-83,48.1c-2.7,1.5-6.3,3.6-8,4.6s-3.4,1.8-4,1.7
		S584.8,308.4,570.5,300z"/>
	<path d="M459.5,236.1c-4.9-2.9-22.2-12.9-38.2-22.1L392,197.1v-63.6l0.1-63.6l29.6-17c16.3-9.3,40-23,52.7-30.4s24-13.8,25.2-14.3
		c1.7-0.8,6.3,1.5,27,13.5c13.7,7.9,27.6,15.9,30.9,17.7s13.9,7.9,23.5,13.5s28.3,16.4,41.5,24s33.5,19.3,45,26s25.4,14.6,30.7,17.6
		l9.8,5.4v61.4l-14.2,8.5c-7.9,4.6-16.4,9.6-19,11l-4.8,2.6l-0.2-30.6l-0.3-30.7l-8-4.7C636,128.5,512.7,57.7,505,53.5l-4.5-2.4
		l-35.3,20.4L430,91.9v41.5l0.1,41.5l17.5,10c9.6,5.5,18.8,10.8,20.5,11.7l2.9,1.8v21.5c0,16.6-0.3,21.5-1.2,21.5
		C469.1,241.3,464.5,239,459.5,236.1z"/>
</g>
</svg>
