<?xml version="1.0" encoding="utf-8"?>
<!-- Generator: $$$/GeneralStr/196=Adobe Illustrator 27.6.0, SVG Export Plug-In . SVG Version: 6.00 Build 0)  -->
<svg version="1.1" id="图层_1" xmlns="http://www.w3.org/2000/svg" xmlns:xlink="http://www.w3.org/1999/xlink" x="0px" y="0px"
	 viewBox="0 0 212.6 89" style="enable-background:new 0 0 212.6 89;" xml:space="preserve">
<style type="text/css">
	.st0{fill:none;stroke:#000000;stroke-width:6.0897;stroke-miterlimit:10;}
	.st1{stroke:#000000;stroke-miterlimit:10;}
</style>
<path d="M0,62.7V25.2h5.8v32.4h10.8v5.1H0z"/>
<path d="M142.5,62.7l-21.9-24.3l0.2,4.1v20.2H115V25.2h0.7l22,24.6l-0.2-4.3V25.2h5.7v37.5H142.5z"/>
<path d="M169.3,25.2h0.6L188,62.7h-6.6l-3.2-7.3H161l-3.2,7.3h-6.4L169.3,25.2z M169.6,36l-2.2,5.1l-4.1,9.1h12.6l-4-9l-2.2-5.2
	H169.6z"/>
<path d="M196,62.7V25.2h5.8v32.4h10.8v5.1H196z"/>
<polyline class="st0" points="99.7,32.5 99.7,24 64.2,3.5 28.7,24 28.7,32.5 "/>
<polyline class="st0" points="28.7,40.5 28.8,65 64.3,85.5 99.8,65 99.7,40.5 "/>
<g>
	<path class="st1" d="M116,20.4c-0.8,0-1.6-0.1-2.3-0.3c-0.8-0.2-1.5-0.4-2.1-0.7c-0.6-0.3-1.1-0.5-1.4-0.8l1.5-2.5
		c0.2,0.2,0.5,0.4,1,0.6c0.4,0.3,1,0.5,1.5,0.7s1.2,0.3,1.8,0.3c1,0,1.8-0.2,2.4-0.6c0.6-0.4,1-1,1-1.8c0-0.7-0.2-1.2-0.6-1.6
		c-0.4-0.4-0.9-0.8-1.5-1.2c-0.6-0.3-1.3-0.6-2-1c-0.7-0.3-1.4-0.6-2-1c-0.7-0.5-1.4-1.1-1.9-1.8c-0.5-0.8-0.8-1.7-0.8-2.9
		s0.3-2.1,0.9-2.9c0.6-0.8,1.3-1.3,2.3-1.7s2-0.6,3.1-0.6c0.9,0,1.7,0.1,2.3,0.3s1.2,0.4,1.6,0.6c0.4,0.2,0.8,0.5,1,0.7l-1.5,2.4
		c-0.3-0.3-0.8-0.6-1.4-0.9c-0.6-0.3-1.4-0.4-2.1-0.4c-0.9,0-1.7,0.2-2.2,0.6c-0.5,0.4-0.8,1-0.8,1.7s0.2,1.3,0.7,1.7
		c0.5,0.5,1.1,0.9,1.9,1.3s1.5,0.8,2.4,1.2c0.8,0.4,1.5,0.9,2.1,1.4c0.5,0.4,0.9,0.9,1.3,1.6c0.4,0.6,0.5,1.3,0.5,2.1
		c0,1.2-0.3,2.2-0.9,3c-0.6,0.8-1.4,1.4-2.4,1.8C118.4,20.2,117.2,20.4,116,20.4z"/>
	<path class="st1" d="M138.8,20.4c-1.8,0-3.3-0.3-4.3-1c-1.1-0.7-1.9-1.7-2.3-2.9c-0.5-1.3-0.7-2.8-0.7-4.5V1h3.2v11.1
		c0,2,0.3,3.5,1,4.4c0.7,0.9,1.7,1.3,3.2,1.3s2.6-0.4,3.2-1.3c0.7-0.9,1-2.3,1-4.4V0.9h3.2v11c0,2.7-0.6,4.8-1.8,6.3
		C143.2,19.7,141.4,20.4,138.8,20.4z"/>
	<path class="st1" d="M155.9,20.2V0.9h4.6c1.8,0,3.3,0.2,4.4,0.7c1.1,0.5,1.9,1.2,2.4,2c0.5,0.9,0.7,1.9,0.7,3c0,2-0.6,3.6-1.9,4.7
		c-1.3,1.1-3.2,1.7-5.8,1.7h-1.1v7.2H155.9z M159.1,10.5h1.2c1.2,0,2.2-0.2,2.8-0.5c0.6-0.4,1.1-0.8,1.3-1.4
		c0.2-0.5,0.3-1.1,0.3-1.6c0-0.6-0.1-1.2-0.4-1.7c-0.2-0.5-0.7-1-1.3-1.3s-1.5-0.5-2.5-0.5H159L159.1,10.5L159.1,10.5z"/>
	<path class="st1" d="M176.5,20.2V0.9h9.1v2.6h-6v5.3h4.8v2.6h-4.8v6.2h6.9v2.6H176.5z"/>
	<path class="st1" d="M195.3,20.2V0.9h4.7c1.1,0,2.1,0.1,3.1,0.3s1.9,0.5,2.6,1c0.8,0.5,1.4,1.1,1.8,1.8c0.5,0.8,0.7,1.7,0.7,2.8
		c0,1.3-0.3,2.4-1,3.3c-0.6,0.9-1.6,1.7-2.9,2.2l4.9,7.9h-3.6l-4.2-7.3c-0.3,0-0.7,0-1.2,0s-0.8,0-1.1,0h-0.8v7.3H195.3z
		 M198.4,10.6h2c1,0,1.9-0.1,2.5-0.4c0.6-0.2,1.1-0.6,1.5-0.9c0.3-0.4,0.6-0.8,0.7-1.2c0.1-0.4,0.2-0.9,0.2-1.2c0-0.9-0.2-1.5-0.6-2
		c-0.4-0.5-1-0.9-1.8-1.1c-0.7-0.2-1.6-0.3-2.6-0.3h-1.9L198.4,10.6L198.4,10.6z"/>
</g>
<g>
	<path d="M64.3,51.3L46.2,41l0.1,21.5h-5.9l-0.1-32l24,13.8l24-13.8v32h-6L82.2,41L64.3,51.3z"/>
</g>
</svg>
