<svg id="Layer_1" data-name="Layer 1" xmlns="http://www.w3.org/2000/svg" viewBox="0 0 1196 500.26"><defs><style>.cls-1{fill:#fff;}</style></defs><g id="layer101"><path class="cls-1" d="M565,481.26c-45.6-26.5-61.3-35.5-103.7-60l-37.2-21.4-.3-52.3-.3-52.4-16-5.8c-8.8-3.2-28.1-10.2-43-15.5s-33.3-11.9-41-14.7-16.2-5.9-19-6.8-19.6-7.1-37.5-13.5-37.9-13.7-44.5-16-21-7.5-32-11.5c-26.6-9.6-42.2-15.2-52.5-18.8-5.9-2.2-9-3.9-10.5-5.8-1.1-1.6-5.6-8-9.9-14.4-9.6-13.9-80.8-117.5-88.1-128C5.3,9.26,0,1.36,0,.36c0-.6,1.9,0,4.3,1.4s15.5,8.9,29.2,16.9,30.9,17.8,38,21.9,18.9,10.9,26,15,49.5,28.6,94,54.3,85.1,49.1,90,52,35.8,20.6,68.5,39.5,71.7,41.4,86.5,50l27,15.6.3,55.2.2,55.1,7.8,4.4c4.2,2.4,31.3,18,60.2,34.7s55.5,32.1,59.3,34.2l6.8,3.9,10.7-6.2c15.5-9,24.2-14,68.2-39.4,21.7-12.6,43-24.8,47.2-27.2l7.8-4.4.2-55.2.3-55.1,18-10.4c9.9-5.7,27-15.6,38-22s25.6-14.7,32.5-18.7c31.7-18.3,78.7-45.4,90-52,6.9-4,49-28.3,93.5-54s86.6-50,93.5-54,18.6-10.7,26-15,24.8-14.3,38.5-22.2,26.9-15.6,29.3-16.9,4.2-2.1,4.2-1.6c0,.8-6,9.7-17,25.5-3,4.2-5.9,8.5-6.5,9.5a76.83,76.83,0,0,1-4.6,6.7c-2,2.8-6.5,9.3-10,14.5-9.1,13.4-33.6,49-40.2,58.5-3.1,4.4-10.4,15-16.2,23.5-21.1,30.8-32,46.6-33.6,48.8-1,1.3-5.1,3.4-10.5,5.4-4.9,1.7-13.2,4.6-18.4,6.5s-10.2,3.5-11,3.7-3.1,1.1-5,1.9-7.3,2.9-12,4.6c-17.9,6.2-43.8,15.5-51.1,18.3-4.2,1.6-8.2,3-9,3.2a36,36,0,0,0-5.3,1.9,45.56,45.56,0,0,1-4.3,1.7c-.3,0-9.8,3.3-21.2,7.4s-23.7,8.5-27.6,9.9-14.6,5.3-24,8.7c-16.9,6.1-42.7,15.4-47.5,17-1.4.5-7,2.5-12.5,4.5s-10.7,3.7-11.5,3.9-3.1,1.1-5,1.9-7.1,2.9-11.5,4.4l-8,2.9-.3,52.7c-.1,30.7-.6,52.7-1.1,52.7-.8,0-11.2,5.8-18.1,10-4.6,2.8-56.1,32.4-58,33.3-1.6.8-1.7.9-12.5,7.3-14.5,8.6-34.1,20-37,21.4A28.44,28.44,0,0,0,641,475a56.68,56.68,0,0,1-6.5,3.8c-2.7,1.5-5.7,3.1-6.5,3.6-3.5,2.2-30.4,18-30.4,17.9S582.9,491.66,565,481.26Z"/><path class="cls-1" d="M295.2,430.66c-23.6-34.3-25.6-37.3-24.6-38.2.5-.5,4.3-1.4,8.4-2l37-5.5c71.4-10.9,82.4-12.6,83.2-12.6.4,0,.8,7.7.8,17,0,11.3-.4,17-1.1,17a36.85,36.85,0,0,0-5.7,2.1c-2.6,1.2-10.3,4.6-17.2,7.6-12.6,5.5-20.1,8.9-23.1,10.3-.9.5-6.1,2.7-11.5,5s-12.6,5.5-15.9,7c-10.4,4.8-17.7,8-18.6,8C306.5,446.36,301.2,439.26,295.2,430.66Z"/><path class="cls-1" d="M841.8,426.06,796,405.86v-16.7c0-9.3.4-16.8.8-16.8.8,0,11.8,1.7,83.2,12.6l37,5.5c4.1.6,7.9,1.4,8.4,1.9s-1.2,3.6-3.5,7-5.2,7.6-6.1,9.1-4.6,6.8-8,11.7-9,12.7-12.2,17.5-6.4,8.7-7,8.7S866.9,437.16,841.8,426.06Z"/><path class="cls-1" d="M581.5,418.06c-8.8-5.1-33.4-19.3-54.8-31.6L488,364.06l.2-119,.3-119,26.5-15.4c14.6-8.4,26.9-15.3,27.4-15.3s9.1,4.8,19.2,10.7l18.4,10.6-8.1,4.9c-4.4,2.7-10.2,6-12.7,7.4s-10.9,6.2-18.4,10.6l-13.8,8v195.3l5.3,2.9c2.8,1.5,18.8,10.7,35.4,20.3s30.6,17.3,31,17,16.7-9.5,36-20.7l35.3-20.2.2-24,.3-24,18-10.4c9.9-5.7,18.3-10.4,18.8-10.4s.7,20.2.7,44.8c0,41.5-.1,45-1.7,46.4-1,.8-11.5,7-23.3,13.8s-26.7,15.3-33,19c-47.5,27.5-51.9,30-52.3,30C597.6,427.36,590.3,423.16,581.5,418.06Z"/><path class="cls-1" d="M207.7,303.36c-18.6-27-33.6-49.4-33.4-49.7.5-.4,28.8,7.7,98.2,28.2,9.9,3,29,8.6,42.5,12.5,48.3,14.2,68.6,20.2,76.8,22.6l8.2,2.5v28.7l-15.7.1c-8.7.1-18.5.3-21.8.6-6,.4-33.7,1.3-62,2-8.2.2-24.9.7-37,1l-22,.7Z"/><path class="cls-1" d="M928.7,351.76c-.1-.1-11.2-.5-24.7-.7-31.2-.7-63.8-1.6-71.5-2.2-3.3-.3-12.9-.5-21.2-.6l-15.3-.1v-28.7l8.3-2.5c8.1-2.4,28.4-8.4,76.7-22.6,13.5-3.9,32.6-9.5,42.5-12.5,66.6-19.6,97.7-28.6,98.1-28.3.2.3-2.2,4.2-5.4,8.7s-6.4,9.3-7.2,10.6-9.4,13.7-19,27.5-17.9,25.9-18.5,26.8c-2.6,4.2-12.2,18.1-14.8,21.5l-2.9,3.8-12.4-.2C934.5,352.06,928.9,351.86,928.7,351.76Z"/><path class="cls-1" d="M570.5,300l-26-15.2-.3-21.7c-.1-11.9.1-21.7.4-21.7.8,0,4.7,2.2,32.3,18.2,11.3,6.5,20.8,11.8,21.2,11.8.7,0,49.6-28,74.9-43,10.3-6,46.9-27.2,56-32.3,1.9-1,11-6.2,20.3-11.5l16.7-9.5-.2-41.6-.3-41.6-14-8.1c-7.7-4.4-23.1-13.3-34.3-19.8s-20.9-11.9-21.7-12.2-10.4,4.7-21.5,11.1-20.4,11.5-20.8,11.3-9-5-19-10.8c-13.8-8-17.9-10.7-16.9-11.6.6-.6,17.6-10.5,37.7-21.9s37.2-21.3,38.1-21.8c1.3-.8,6.7,1.9,25,12.5C731,28,755.5,42.06,772.7,52l31.2,17.9.1,63.6v63.6l-2.2,1.1c-2.8,1.4-5.5,2.9-37.3,21.4-13.7,7.9-27.2,15.7-30,17.2s-7.9,4.5-11.5,6.6-8.3,4.8-10.5,6-11.2,6.4-20,11.5c-65.2,37.9-78.6,45.6-83,48.1-2.7,1.5-6.3,3.6-8,4.6s-3.4,1.8-4,1.7S584.8,308.36,570.5,300Z"/><path class="cls-1" d="M459.5,236.06c-4.9-2.9-22.2-12.9-38.2-22.1L392,197.06v-63.6l.1-63.6,29.6-17c16.3-9.3,40-23,52.7-30.4s24-13.8,25.2-14.3c1.7-.8,6.3,1.5,27,13.5,13.7,7.9,27.6,15.9,30.9,17.7s13.9,7.9,23.5,13.5,28.3,16.4,41.5,24,33.5,19.3,45,26,25.4,14.6,30.7,17.6l9.8,5.4v61.4l-14.2,8.5c-7.9,4.6-16.4,9.6-19,11l-4.8,2.6-.2-30.6-.3-30.7-8-4.7C636,128.46,512.7,57.66,505,53.46l-4.5-2.4-35.3,20.4L430,91.86v41.5l.1,41.5,17.5,10c9.6,5.5,18.8,10.8,20.5,11.7l2.9,1.8v21.5c0,16.6-.3,21.5-1.2,21.5C469.1,241.26,464.5,239,459.5,236.06Z"/></g></svg>