<?xml version="1.0" encoding="utf-8"?>
<!-- Generator: $$$/GeneralStr/196=Adobe Illustrator 27.6.0, SVG Export Plug-In . SVG Version: 6.00 Build 0)  -->
<svg version="1.1" id="图层_1" xmlns="http://www.w3.org/2000/svg" xmlns:xlink="http://www.w3.org/1999/xlink" x="0px" y="0px"
	 viewBox="0 0 287.1 178" style="enable-background:new 0 0 287.1 178;" xml:space="preserve">
<style type="text/css">
	.st0{fill:none;}
	.st1{fill:none;stroke:#000000;stroke-width:6.0897;stroke-miterlimit:10;}
</style>
<g>
	<rect x="44" y="63.3" class="st0" width="219" height="62"/>
	<path d="M48,107.5V70h5.8v32.4h10.8v5.1H48z"/>
	<path d="M74.3,107.5V70H80v37.5H74.3z"/>
	<path d="M112.1,107.5l-9-17.5l-2.3-5.3L99.7,90l-3.5,17.5h-5.7L98.3,70h0.6l10.3,20.2l3.1,6.8l3.1-6.8L125.4,70h0.6l8.1,37.5h-5.6
		L124.7,90l-1.1-5.3l-2,5.3l-9.1,17.5H112.1z"/>
	<path d="M144.6,107.5V70h5.7v37.5H144.6z"/>
	<path d="M190.5,107.5l-21.9-24.3l0.2,4.1v20.2H163V70h0.7l22,24.6l-0.2-4.3V70h5.7v37.5H190.5z"/>
	<path d="M217.3,70h0.6l18.1,37.5h-6.6l-3.2-7.3h-17.2l-3.2,7.3h-6.4L217.3,70z M217.6,80.8l-2.2,5.1l-4.1,9.1h12.6l-4-9l-2.2-5.2
		H217.6z"/>
	<path d="M244,107.5V70h5.8v32.4h10.8v5.1H244z"/>
</g>
<polygon class="st1" points="112.2,47.5 76.7,68 76.8,109 112.3,129.5 147.8,109 147.7,68 "/>
<g>
	<path d="M167.8,64.2c-0.8,0-1.5-0.1-2.3-0.3c-0.8-0.2-1.4-0.4-2-0.7c-0.6-0.3-1-0.6-1.3-0.9l1.5-2.6c0.2,0.2,0.5,0.4,0.9,0.6
		c0.4,0.3,0.9,0.5,1.5,0.7c0.6,0.2,1.1,0.3,1.7,0.3c0.9,0,1.7-0.2,2.3-0.7s0.9-1.1,0.9-1.9c0-0.7-0.2-1.3-0.5-1.7
		c-0.4-0.5-0.8-0.9-1.4-1.2c-0.6-0.3-1.2-0.7-1.9-1c-0.7-0.3-1.3-0.7-2-1.1c-0.7-0.5-1.3-1.1-1.9-1.9c-0.5-0.8-0.8-1.8-0.8-3
		c0-1.2,0.3-2.2,0.8-3c0.6-0.8,1.3-1.4,2.2-1.8c0.9-0.4,1.9-0.6,3-0.6c0.9,0,1.6,0.1,2.3,0.3c0.6,0.2,1.1,0.4,1.6,0.7
		c0.4,0.3,0.8,0.5,1,0.7l-1.5,2.5c-0.3-0.3-0.8-0.6-1.4-0.9c-0.6-0.3-1.3-0.4-2.1-0.4c-0.9,0-1.6,0.2-2.1,0.6
		c-0.5,0.4-0.8,1-0.8,1.8c0,0.7,0.2,1.3,0.7,1.8c0.5,0.5,1.1,1,1.8,1.4s1.5,0.8,2.3,1.2c0.8,0.4,1.5,0.9,2.1,1.5
		c0.5,0.4,0.9,1,1.3,1.6c0.3,0.7,0.5,1.4,0.5,2.2c0,1.2-0.3,2.3-0.9,3.2c-0.6,0.9-1.4,1.5-2.3,1.9C170.1,64,169,64.2,167.8,64.2z"/>
	<path d="M190,64.2c-1.8,0-3.2-0.4-4.2-1.1c-1.1-0.7-1.8-1.7-2.3-3.1c-0.5-1.3-0.7-2.9-0.7-4.7V43.8h3.1v11.6c0,2.1,0.3,3.7,1,4.6
		c0.6,0.9,1.7,1.4,3.1,1.4c1.4,0,2.5-0.4,3.1-1.3c0.6-0.9,1-2.4,1-4.6V43.8h3.1v11.6c0,2.8-0.6,5-1.8,6.6S192.4,64.2,190,64.2z"/>
	<path d="M206.5,64V43.8h4.4c1.8,0,3.2,0.3,4.2,0.8c1.1,0.5,1.8,1.2,2.3,2.1s0.7,1.9,0.7,3.1c0,2.1-0.6,3.8-1.9,5
		c-1.2,1.2-3.1,1.7-5.7,1.7h-1.1V64H206.5z M209.7,53.8h1.2c1.2,0,2.1-0.2,2.7-0.6c0.6-0.4,1-0.9,1.3-1.4c0.2-0.6,0.3-1.1,0.3-1.6
		c0-0.6-0.1-1.2-0.4-1.8c-0.2-0.5-0.6-1-1.2-1.3c-0.6-0.3-1.4-0.5-2.5-0.5h-1.4V53.8z"/>
	<path d="M226.6,64V43.8h8.8v2.7h-5.8v5.6h4.7v2.7h-4.7v6.4h6.7V64H226.6z"/>
	<path d="M244.9,64V43.8h4.6c1,0,2,0.1,3,0.3c1,0.2,1.8,0.5,2.6,1c0.8,0.5,1.3,1.1,1.8,1.9c0.4,0.8,0.7,1.8,0.7,2.9
		c0,1.3-0.3,2.5-0.9,3.5c-0.6,1-1.6,1.7-2.8,2.3l4.8,8.3H255l-4.1-7.6c-0.3,0-0.7,0-1.1,0c-0.4,0-0.8,0-1.1,0h-0.8V64H244.9z
		 M247.9,53.9h1.9c1,0,1.8-0.1,2.4-0.4c0.6-0.3,1.1-0.6,1.4-1c0.3-0.4,0.6-0.8,0.7-1.3c0.1-0.5,0.2-0.9,0.2-1.3
		c0-0.9-0.2-1.6-0.6-2.1s-1-0.9-1.7-1.1c-0.7-0.2-1.6-0.3-2.5-0.3h-1.8V53.9z"/>
</g>
<g>
</g>
<g>
</g>
<g>
</g>
<g>
</g>
<g>
</g>
<g>
</g>
<g>
</g>
<g>
</g>
<g>
</g>
<g>
</g>
<g>
</g>
<g>
</g>
<g>
</g>
<g>
</g>
<g>
</g>
</svg>
